<svg xmlns="http://www.w3.org/2000/svg" viewBox="0 0 300 300">
  <title>icon</title>
  <g>
    <path d="M254.4,148.7c-28.2-22.9-63.7-15.3-82.8,3.6s-26.9,56.3-2.4,85c-5,5.2-9.9,10.6-15.2,15.6-3.1,2.9-8.5,2.7-11.9.1a30.8,30.8,0,0,1-2.6-2.4L53.8,164.9c-12.3-12.4-18.7-27.4-18.6-44.8.2-30.4,21.9-54.9,52.1-58.9,19.7-2.6,36.6,3.5,50.8,17.1,3.3,3.2,6.3,6.7,9.4,10.1,4.7-4.4,8.7-8.5,12.9-12.2,28.8-25.3,71.1-19.3,91.8,12.9C263.4,106.6,264.4,132.3,254.4,148.7Z"/>
    <path d="M215.1,242.5c-26.4.1-46.9-20.3-47-46.6a46.7,46.7,0,0,1,47-46.8c25.7.1,46.4,21,46.6,47A46.4,46.4,0,0,1,215.1,242.5Zm-7.7-20.9h15.4V203.4h17.7V188.1H222.6V170.2H207v18H189.2v15.4h18.2Z"/>
  </g>
</svg>
