<svg xmlns="http://www.w3.org/2000/svg" viewBox="0 0 300 300">
  <title>icon</title>
  <path d="M134.2,119.2H111.3c-12.4,0-24.7-.1-37.1,0-3.5.1-5.1-.8-5-4.7q.5-11.2,0-22.5c-.1-3.6,1.3-4.5,4.6-4.5h60.1c.1-2.1.3-3.8.3-5.5,0-18.2.1-36.5-.1-54.8,0-3.9,1-5.5,5.2-5.3,7.3.4,14.7.3,22.1,0,3.6-.1,4.5,1.2,4.4,4.6-.1,18.6,0,37.2,0,55.7v5.3h5.1c18.4,0,36.9.1,55.3-.1,3.5,0,4.6,1.1,4.5,4.6-.2,7.2-.3,14.4,0,21.6.2,4.2-1,5.6-5.3,5.6-18-.3-36-.1-54-.1h-5.6v153c0,5.7,0,5.7-5.8,5.8-7.4,0-14.7-.1-22.1,0-2.7,0-3.8-1-3.7-3.6V119.2Z"/>
</svg>
