<svg xmlns="http://www.w3.org/2000/svg" viewBox="0 0 300 300">
  <title>icon</title>
  <g>
    <path d="M53,157.8c.1-53.7,44.2-97.7,97.5-97.3s97,43.9,97.1,97.3-44,97.6-97.7,97.3S52.9,211.3,53,157.8Zm120.2-26.3c-2.8,6-2.4,11.3,1.1,16.2,4.7,6.5,11.4,9.5,19.3,10,5.9.3,11.7-.2,17-4.3ZM89.8,153.4c9.1,6.3,23.3,5.7,32-1.1s9.1-12.4,5.6-20.7Zm36,59.3c16.8-12.7,33.5-12.5,50.5.3-2.6-9.8-14.3-17.6-25.6-17.1S128,201.8,125.8,212.7Zm75.1-45h-2.1c-1.8,4.1-3.7,8-5.1,12.2-.9,2.7.1,5.2,2.7,6.8a6.3,6.3,0,0,0,7.4-.3c2.5-1.8,3.3-4.3,2.3-6.9S202.6,171.6,200.9,167.7Z"/>
    <path d="M266.3,115.6V98.4H248.6V82.5h17.6V64.8h16V82.2h17.6V98.1H282.6v17.5Z"/>
  </g>
</svg>
