<svg xmlns="http://www.w3.org/2000/svg" viewBox="0 0 300 300">
  <title>icon</title>
  <g>
    <path d="M236.9,215.7l4.4-6.5c16.1-25.1,21.3-52.5,15.2-81.5-5.8-27.4-20.2-49.7-43.1-66-26.3-18.6-55.3-24.5-86.8-18-2.7.5-3.6,2-3.5,4.6.1,6.7,0,13.4,0,20.2s.5,6.7,6.5,5.1a76,76,0,0,1,52.7,4.3c34.3,15.7,52.4,51.2,45.1,88.2a72.5,72.5,0,0,1-11.6,27.7l-2.9-2.6c-6.4-6.4-12.7-12.9-19.2-19.2-1-.9-3.3-2-3.9-1.6a5.6,5.6,0,0,0-2,4.2c-.1,20.5-.1,41.1,0,61.6,0,4.3.6,4.9,4.9,4.9h60.9c1.7,0,3.3-1,4.9-1.6-.7-1.5-1.1-3.4-2.2-4.6C250,228.4,243.4,222.1,236.9,215.7Z"/>
    <path d="M174.8,231.7c0-5.5-.9-6.3-6.3-4.9a73.2,73.2,0,0,1-34.5.7c-43.5-9.6-70.1-50.3-61.4-94a76.6,76.6,0,0,1,11.6-27.4c7.5,7.4,14.6,14.7,21.8,21.7,1.1,1.1,2.9,1.4,4.3,2.1.7-1.6,1.9-3.2,1.9-4.8q.1-30.4.1-60.9c0-4.6-.6-5.1-5.1-5.1-20.3,0-40.6-.1-60.9,0-1.7.1-3.3,1.1-4.9,1.6.7,1.6,1.1,3.4,2.3,4.6C49.9,71.7,56.2,78,62.8,84.5L59,90.3C48.1,106.8,41.9,125,41.3,144.8c-1.2,38.6,13.7,70.1,44.8,93.1,25.4,18.9,54.2,24.5,85.2,18.9,2.6-.5,3.6-1.7,3.5-4.2Z"/>
  </g>
</svg>
