<svg xmlns="http://www.w3.org/2000/svg" viewBox="0 0 300 300">
  <title>icon</title>
  <g>
    <path d="M.2,149.9C.3,84.7,53.9,31.3,118.5,31.9s117.8,53.2,117.9,118S183,268.5,117.8,268.1,0,214.9.2,149.9Zm145.9-31.8c-3.5,7.3-2.9,13.7,1.3,19.6,5.7,7.9,13.9,11.6,23.4,12.1,7.2.5,14.3-.2,20.7-5.2ZM44.9,144.6c11,7.7,28.2,6.9,38.7-1.3,8.8-6.8,11.2-15,6.8-25.2Zm43.6,72c20.4-15.4,40.7-15.2,61.3.4-3.1-11.9-17.3-21.4-31-20.8S91.2,203.4,88.5,216.6ZM179.7,162h-2.6c-2.1,4.9-4.4,9.7-6.1,14.7-1.2,3.3.1,6.4,3.2,8.3a7.7,7.7,0,0,0,9-.4c3.1-2.1,4.1-5.1,2.9-8.4S181.8,166.7,179.7,162Z"/>
    <path d="M259.2,98.8v-21H237.7V58.5H259V37.1h19.4V58.2h21.4V77.5H278.9V98.8Z"/>
  </g>
</svg>
