<svg xmlns="http://www.w3.org/2000/svg" viewBox="0 0 300 300">
  <defs>
    <style>
      .a {
        fill: #1f00d1;
      }
    </style>
  </defs>
  <title>Artboard 4</title>
  <g>
    <path class="a" d="M54.2,140H76c6.3,0,10.6,4,10.7,9.8S82.5,160,76.1,160h-44c-6.1,0-10.5-4.3-10.5-10s4.3-10,10.5-10Z"/>
    <path class="a" d="M245.7,160H224.2c-6.7,0-11-4.1-10.9-10.2s4.3-9.8,11-9.8h43.2c6.4,0,10.9,4.2,10.9,10s-4.5,10-10.9,10Z"/>
    <path class="a" d="M140,245.8V224c0-6.5,4.1-10.8,10.1-10.7s9.9,4.2,9.9,10.5c.1,14.6.1,29.3,0,43.9,0,6.2-4.3,10.7-9.9,10.7S140,273.9,140,267.6Z"/>
    <path class="a" d="M140,54V32.2c0-6.2,4.1-10.5,9.9-10.6A9.9,9.9,0,0,1,160,31.7c.1,15.1.1,30.2-.1,45.3,0,5.9-4.6,9.9-10.4,9.7s-9.4-4.3-9.5-10.2C139.9,69,140,61.5,140,54Z"/>
    <path class="a" d="M214.1,123.4c-4.7-.1-8.6-2.7-10-6.4a9.5,9.5,0,0,1,2.1-10.5,9,9,0,0,1,2.7-2.1l38-22c6.5-3.7,13.5-.8,15.3,6.2a9.5,9.5,0,0,1-4.3,10.5q-19.8,11.6-39.8,22.9A21.6,21.6,0,0,1,214.1,123.4Z"/>
    <path class="a" d="M96.5,113.3a9.8,9.8,0,0,1-14.1,9c-4.5-2.2-8.8-5-13.2-7.5L42.9,99.6C37.6,96.5,36,91.1,38.7,86a9.8,9.8,0,0,1,13.7-3.9q19.8,11.3,39.5,22.8A9.4,9.4,0,0,1,96.5,113.3Z"/>
    <path class="a" d="M251.1,219.1a15,15,0,0,1-3.7-1.3c-12.9-7.4-25.9-14.9-38.8-22.5a9.9,9.9,0,0,1,5.7-18.6,9.3,9.3,0,0,1,3.9,1.2c13,7.4,25.9,14.9,38.9,22.5,4.5,2.6,6.2,6.9,5,11.3S256.9,219.1,251.1,219.1Z"/>
    <path class="a" d="M219.1,251.5c0,5.6-3,9.5-7.5,10.7s-8.7-.6-11.2-4.9c-6.6-11.3-13.1-22.7-19.6-34.1-1-1.7-2.1-3.3-3-5.1a9.9,9.9,0,0,1,3.9-13.4,9.6,9.6,0,0,1,13.3,3.5q11.5,19.7,22.8,39.4A19.1,19.1,0,0,1,219.1,251.5Z"/>
    <path class="a" d="M96.5,186.5a9.7,9.7,0,0,1-5.1,8.8q-19.4,11.4-38.9,22.5A10.1,10.1,0,0,1,38.7,214a9.5,9.5,0,0,1,3.6-13.2c13.2-7.9,26.6-15.7,40-23.2C88.7,174,96.4,179.1,96.5,186.5Z"/>
    <path class="a" d="M91.4,262.6a10.1,10.1,0,0,1-9.8-13.8,57.1,57.1,0,0,1,3.5-6.4c6.4-11.1,12.7-22.1,19.2-33.2,3.2-5.5,8.8-7.3,13.7-4.6s6.8,8.9,3.5,14.6c-7.2,12.7-14.5,25.3-21.9,38A10.7,10.7,0,0,1,91.4,262.6Z"/>
    <path class="a" d="M219.5,47.7a62.5,62.5,0,0,1-2.4,6c-7.1,12.4-14.3,24.8-21.5,37.1-3.2,5.5-8.8,7.2-14.1,4.3s-6.4-8.4-3.3-13.8c7.4-13.2,15-26.2,22.6-39.3a9.7,9.7,0,0,1,11-4.3C216.2,38.9,219.1,43,219.5,47.7Z"/>
    <path class="a" d="M92,37.5c2.8.1,5.7,2,7.6,5.3,7.5,12.9,15,25.8,22.4,38.9,2.8,5.1,1.1,10.9-3.6,13.4a9.8,9.8,0,0,1-13.7-3.8C97.1,78.4,89.5,65.5,82.2,52.5,78.3,45.4,83,37.5,92,37.5Z"/>
  </g>
</svg>
